<?xml version="1.0" encoding="utf-8"?>
<svg version="1.1" id="Layer_1" xmlns="http://www.w3.org/2000/svg" xmlns:xlink="http://www.w3.org/1999/xlink" x="0px" y="0px"
	 viewBox="-419 420 25 25" style="enable-background:new -419 420 25 25;" xml:space="preserve">
<style type="text/css">
	.st0{fill:#8C8C8C;}
</style>
<g>
	<path class="st0" d="M-407.3,441.3c-2.3,2.3-5.9,2.3-8.2,0c-2.3-2.3-2.3-6,0-8.2l3.1-3.1c-0.1,1.1,0,2.3,0.4,3.3l-1.6,1.6
		c-1.2,1.2-1.2,3.2,0,4.4c1.2,1.2,3.2,1.2,4.4,0l3.3-3.3c1.2-1.2,1.2-3.2,0-4.4c-0.5-0.5-0.5-1.4,0-1.9c0.5-0.5,1.4-0.5,1.9,0
		c2.3,2.3,2.3,6,0,8.2L-407.3,441.3z M-400.5,434.5c0.1-1.1,0-2.3-0.4-3.3l1.6-1.6c1.2-1.2,1.2-3.2,0-4.4c-1.2-1.2-3.2-1.2-4.4,0
		l-3.3,3.3c-1.2,1.2-1.2,3.2,0,4.4c0.5,0.5,0.5,1.4,0,1.9c-0.5,0.5-1.4,0.5-1.9,0c-2.3-2.3-2.3-6,0-8.2l3.3-3.3c2.3-2.3,6-2.3,8.2,0
		c2.3,2.3,2.3,5.9,0,8.2L-400.5,434.5z"/>
</g>
</svg>
